HIERARCHY
ROOT Hips
{
	OFFSET -0.179506 -22.333345 2.821913
	CHANNELS 6 Xposition Yposition Zposition Zrotation Yrotation Xrotation 
	JOINT LeftUpLeg
	{
		OFFSET 6.951974 -9.140623 -0.681533
		CHANNELS 3 Zrotation Yrotation Xrotation
		JOINT LeftLeg
		{
			OFFSET 3.427654 -37.519855 -0.449580
			CHANNELS 3 Zrotation Yrotation Xrotation
			JOINT LeftFoot
			{
				OFFSET -1.359570 -39.796059 -4.369333
				CHANNELS 3 Zrotation Yrotation Xrotation
				JOINT LeftToe
				{
					OFFSET 2.635814 -5.579078 11.928840
					CHANNELS 3 Zrotation Yrotation Xrotation
					End Site
					{
						OFFSET 0.000000 0.000000 0.000000
					}
				}
			}
		}
	}
	JOINT RightUpLeg
	{
		OFFSET -6.767048 -9.052170 -0.431982
		CHANNELS 3 Zrotation Yrotation Xrotation
		JOINT RightLeg
		{
			OFFSET -3.829005 -38.256897 -0.885003
			CHANNELS 3 Zrotation Yrotation Xrotation
			JOINT RightFoot
			{
				OFFSET 1.577377 -39.841461 -4.231180
				CHANNELS 3 Zrotation Yrotation Xrotation
				JOINT RightToe
				{
					OFFSET -2.537174 -4.814398 12.334795
					CHANNELS 3 Zrotation Yrotation Xrotation
					End Site
					{
						OFFSET 0.000000 0.000000 0.000000
					}
				}
			}
		}
	}
	JOINT Spine
	{
		OFFSET -0.253288 10.896323 -2.669631
		CHANNELS 3 Zrotation Yrotation Xrotation
		JOINT Spine1
		{
			OFFSET 0.548704 13.518043 0.109247
			CHANNELS 3 Zrotation Yrotation Xrotation
			JOINT Spine2
			{
				OFFSET 0.145701 5.292222 2.542457
				CHANNELS 3 Zrotation Yrotation Xrotation
				JOINT Neck
				{
					OFFSET -0.277840 21.387037 -4.285703
					CHANNELS 3 Zrotation Yrotation Xrotation
					JOINT Head
					{
						OFFSET 0.515184 6.496960 5.134897
						CHANNELS 3 Zrotation Yrotation Xrotation
						End Site
						{
							OFFSET 0.000000 0.000000 0.000000
						}
					}
				}
				JOINT LeftShoulder
				{
					OFFSET 7.884473 12.174932 -3.408961
					CHANNELS 3 Zrotation Yrotation Xrotation
					JOINT LeftArm
					{
						OFFSET 9.097692 3.046888 -0.886815
						CHANNELS 3 Zrotation Yrotation Xrotation
						JOINT LeftForeArm
						{
							OFFSET 25.961220 -1.277207 -2.745643
							CHANNELS 3 Zrotation Yrotation Xrotation
							JOINT LeftHand
							{
								OFFSET 24.923361 0.898606 -0.117091
								CHANNELS 3 Zrotation Yrotation Xrotation
								End Site
								{
									OFFSET 0.000000 0.000000 0.000000
								}
							}
						}
					}
				}
				JOINT RightShoulder
				{
					OFFSET -8.175920 11.883285 -3.861528
					CHANNELS 3 Zrotation Yrotation Xrotation
					JOINT RightArm
					{
						OFFSET -9.601238 3.255117 -0.914307
						CHANNELS 3 Zrotation Yrotation Xrotation
						JOINT RightForeArm
						{
							OFFSET -25.374195 -1.332924 -2.140099
							CHANNELS 3 Zrotation Yrotation Xrotation
							JOINT RightHand
							{
								OFFSET -25.529810 0.777228 -0.555919
								CHANNELS 3 Zrotation Yrotation Xrotation
								End Site
								{
									OFFSET 0.000000 0.000000 0.000000
								}
							}
						}
					}
				}
			}
		}
	}
}
MOTION
Frames: 18
Frame Time: 0.033333
4.444397 87.191750 10.031167 178.718689 -3.788636 178.124034 19.997072 18.292266 -4.915111 -14.151324 9.295961 22.310794 -15.094056 0.495666 5.401727 nan nan nan -17.011792 -12.400190 -4.761570 -0.416169 -8.276871 20.327232 1.714908 -8.752491 -6.574126 nan nan nan 1.540973 -0.381529 3.030136 -2.409493 -3.560863 -8.069878 0.306712 -0.252033 -0.708521 -3.875562 6.810862 -10.377318 3.841037 -10.150490 -36.798085 6.969326 -14.558432 -8.085435 6.012385 -8.509009 -20.267124 116.343502 -44.203780 -100.590084 19.394925 -25.892942 -20.053210 -8.779380 14.058326 -8.213064 6.188587 4.260559 -28.133608 -133.917699 49.510308 -118.430406 -15.779201 17.612486 -19.830027 
4.430606 87.200920 9.992693 178.707717 -3.867340 178.148070 19.951704 18.467568 -4.869646 -14.092037 9.518762 22.178416 -15.014645 0.437989 5.456625 nan nan nan -17.003693 -12.534354 -4.728125 -0.806154 -8.680093 20.322156 1.717150 -8.989223 -5.852483 nan nan nan 1.452425 -0.307612 2.855285 -2.320928 -3.605020 -8.072531 0.384163 -0.282773 -0.648149 -3.974500 6.726731 -9.925573 3.931232 -10.074110 -37.086430 6.752349 -14.702427 -7.923415 6.186241 -8.202328 -20.243569 116.609217 -44.380114 -101.028928 19.863658 -25.775255 -20.287985 -8.780189 14.165877 -8.074676 6.105075 4.078560 -28.335949 -133.977507 49.622932 -118.582875 -16.466342 17.572114 -19.868260 
4.473221 87.227310 10.023975 178.990814 -3.717179 178.300769 20.434736 18.401750 -4.896337 -14.115866 10.452081 22.062677 -15.128701 -0.034834 5.910148 nan nan nan -16.440768 -11.323917 -4.455899 0.941256 -6.820403 17.559592 2.913102 -5.995341 1.252720 nan nan nan 1.538735 -0.002440 2.474441 -1.667338 -3.360608 -7.992135 0.274226 -0.190116 -0.456034 -4.020905 6.162553 -9.298569 3.598135 -10.643660 -37.721192 7.408182 -13.934735 -6.831553 3.746907 -8.296444 -18.963226 117.350289 -44.624857 -103.375263 13.942209 -24.039469 -24.773821 -9.179377 13.350716 -7.756853 6.201913 4.677080 -28.972779 -134.317529 49.445641 -118.971665 -13.106681 16.466081 -18.795222 
4.466236 87.234039 10.031942 178.970198 -3.749209 178.303220 20.422209 18.390412 -4.856483 -14.189943 10.329536 21.991092 -15.131912 -0.074832 5.922120 nan nan nan -16.469593 -11.340253 -4.446516 0.929125 -6.838164 17.558766 2.966235 -6.018942 1.498574 nan nan nan 1.464880 0.005588 2.553759 -1.645647 -3.374370 -8.020814 0.283893 -0.206924 -0.491907 -3.955135 6.153034 -9.426635 3.591337 -10.593386 -37.578312 7.380665 -13.920571 -6.821879 3.846639 -8.342340 -18.976305 117.356200 -44.633320 -103.376860 13.761746 -23.929725 -24.654477 -9.118564 13.307664 -7.761256 6.132272 4.712302 -28.978601 -134.350270 49.472363 -119.033506 -12.936681 16.522596 -18.761819 
4.467449 87.239105 10.019754 179.033122 -3.664077 178.292590 20.607829 18.638685 -4.731402 -14.198375 10.461246 22.006292 -15.639291 -0.389172 6.234110 nan nan nan -16.411719 -11.220299 -4.444219 1.067922 -6.781734 17.560482 2.955275 -5.617289 1.279270 nan nan nan 1.730515 -0.071976 2.556856 -1.904960 -3.475440 -7.462596 0.147489 -0.379947 -1.254487 -3.705227 7.327239 -9.341769 3.677233 -10.899777 -37.520335 6.971543 -14.555933 -7.260506 5.251531 -7.433586 -19.776296 115.520098 -44.552920 -100.329851 8.514934 -26.439919 -20.583586 -8.962785 14.058114 -7.784197 6.438565 4.460890 -28.732778 -133.952865 49.042955 -118.277960 -9.849722 17.606783 -18.393025 
4.502295 87.339424 9.433776 179.017911 -1.954675 176.212737 22.252038 15.561109 0.254784 -15.501321 13.353630 18.658722 -17.428118 0.155253 7.277233 nan nan nan -16.755060 -10.376921 -2.011807 1.417836 -5.466958 16.644739 4.128733 -3.003678 3.822273 nan nan nan 2.462397 0.558368 4.705402 -2.228869 -2.012590 -7.755897 -0.500195 0.301463 -0.341036 -2.852473 9.033590 -8.584723 2.669251 -15.460757 -38.629556 11.256137 -9.039344 -9.794025 -2.897333 -16.695596 -17.891183 114.233207 -44.976637 -100.219473 3.961963 -29.542304 -17.041067 -10.493756 10.222875 -8.378127 9.340802 8.104014 -27.977906 -133.764577 48.622821 -117.547449 -5.407051 18.998255 -16.592522 
4.502002 87.344826 9.385166 179.047099 -1.923635 176.309168 22.198126 15.488074 0.253256 -15.447901 13.400754 18.504381 -17.616155 0.393425 7.436933 nan nan nan -16.713354 -10.362876 -2.034168 1.382817 -5.485928 16.586890 4.164520 -3.033042 4.059810 nan nan nan 2.490505 0.533754 4.626082 -2.219777 -1.977491 -7.825511 -0.482796 0.347233 -0.103060 -2.833509 9.060966 -8.703788 2.674636 -15.516210 -38.831179 11.440161 -9.014244 -9.875292 -3.195067 -16.708901 -17.778923 114.610323 -44.862746 -100.174587 3.792043 -29.519307 -17.523106 -10.557844 10.211327 -8.449983 9.365861 8.079959 -27.874803 -133.705008 48.399583 -117.305038 -4.676596 18.987387 -16.426981 
4.516178 87.353813 9.354589 179.058431 -1.877006 176.380010 22.173746 15.529721 0.251491 -15.434691 13.333572 18.452249 -17.629336 0.527314 7.472975 nan nan nan -16.687297 -10.385117 -2.128317 1.328758 -5.488679 16.662254 4.160346 -3.169484 4.213275 nan nan nan 2.445588 0.538133 4.585262 -2.182375 -1.953147 -7.905294 -0.447927 0.394538 0.009463 -2.856447 8.945876 -8.660309 2.726026 -15.396730 -39.000404 11.406902 -9.087791 -9.829158 -3.053694 -16.621893 -17.831338 114.823472 -44.899131 -100.004456 4.165665 -29.031955 -17.665012 -10.528720 10.210148 -8.393171 9.338515 8.050196 -27.934897 -133.699429 48.298835 -117.099326 -4.922465 18.752308 -16.045716 
4.531591 87.373154 9.340224 179.048769 -1.852596 176.416396 22.139311 15.558975 0.257032 -15.452121 13.267715 18.439338 -17.574343 0.589562 7.467733 nan nan nan -16.693330 -10.414626 -2.200712 1.301387 -5.485002 16.766159 4.139475 -3.304305 4.310751 nan nan nan 2.389163 0.539142 4.588617 -2.136563 -1.962342 -7.989840 -0.442884 0.405266 0.083706 -2.906653 8.845485 -8.573903 2.801707 -15.280446 -39.084729 11.365178 -9.088823 -9.777271 -2.892941 -16.618428 -17.872164 115.065669 -44.919674 -100.034481 4.359655 -28.295922 -17.554096 -10.450189 10.185891 -8.319917 9.339916 8.155328 -27.907522 -133.752242 48.223582 -117.096963 -5.273747 18.491157 -15.826280 
4.543293 87.398338 9.352660 179.024135 -1.876145 176.428059 22.066650 15.590157 0.210155 -15.419323 13.220063 18.509924 -17.549851 0.618541 7.463496 nan nan nan -16.669876 -10.420475 -2.238663 1.234674 -5.403282 16.835271 4.103513 -3.342771 4.337341 nan nan nan 2.332178 0.537429 4.664232 -2.129648 -1.992218 -8.111743 -0.454904 0.418828 0.154260 -2.883726 8.757645 -8.586735 2.973462 -15.207485 -39.053285 11.117018 -9.140743 -9.871495 -2.494571 -16.663037 -17.871948 115.173947 -45.092810 -100.249334 4.635676 -28.190241 -17.937664 -10.315101 10.233734 -8.388547 9.285042 8.110831 -27.835004 -133.961541 48.250052 -117.464343 -5.211814 18.545936 -15.962341 
4.551504 87.504425 9.378063 179.049394 -1.957431 176.296267 22.097764 15.366581 0.428341 -15.480109 13.163969 18.243372 -18.018118 0.996104 7.630325 nan nan nan -16.587295 -10.450703 -2.050672 1.344611 -4.895659 16.664315 4.160037 -3.036376 4.606897 nan nan nan 2.355621 0.539474 4.618298 -1.994902 -1.885806 -8.161407 -0.941761 0.187173 1.674191 -2.731320 8.829074 -10.928052 2.988240 -15.011951 -39.084715 10.667558 -7.290006 -10.429722 -1.789018 -18.587524 -18.734479 115.452693 -45.744723 -101.124883 5.153610 -28.210148 -18.592903 -9.244291 8.628687 -8.696306 8.627677 9.902118 -28.643853 -134.517760 48.511620 -118.644726 -4.295995 18.652331 -15.470407 
4.549841 87.536591 9.375962 179.073071 -2.029892 176.254126 22.094070 15.378116 0.449657 -15.415796 13.051226 18.273230 -18.136493 0.974637 7.669841 nan nan nan -16.604684 -10.543350 -1.978649 1.360963 -4.915117 16.645027 4.200558 -2.941639 4.716598 nan nan nan 2.379045 0.508669 4.821871 -1.937256 -1.896446 -8.392308 -0.984521 0.150719 1.779982 -2.786058 8.840639 -10.959242 3.089226 -14.975644 -39.126783 10.605573 -7.149496 -10.422519 -1.809767 -18.664108 -18.664957 115.523956 -45.820779 -101.234273 5.599754 -28.435076 -19.095021 -9.104659 8.562402 -8.704595 8.410154 9.935903 -28.729107 -134.566913 48.674538 -118.771212 -4.386143 18.829531 -15.628619 
4.558964 87.551247 9.369559 179.091115 -2.001682 176.220819 22.127207 15.386241 0.512760 -15.380978 13.032325 18.309917 -18.217692 0.819692 7.669631 nan nan nan -16.617863 -10.560495 -1.931262 1.384841 -4.966088 16.632073 4.274003 -2.747325 4.778472 nan nan nan 2.419082 0.476601 4.969533 -1.885461 -1.905953 -8.410621 -1.014402 0.051916 1.734357 -2.784807 9.163176 -11.013601 3.008242 -15.198678 -39.123287 11.075879 -7.010150 -10.236487 -2.387485 -18.473350 -18.714808 115.571832 -45.371918 -100.937201 5.088017 -28.754334 -18.499619 -9.109600 8.590128 -8.616971 8.419042 10.137344 -28.740814 -134.357064 48.546261 -118.238445 -4.434011 18.838966 -15.333257 
4.577270 87.560097 9.366339 179.093090 -1.916999 176.188215 22.161109 15.431814 0.600468 -15.348258 13.094482 18.348351 -18.313452 0.672259 7.693144 nan nan nan -16.637541 -10.540700 -1.887186 1.368141 -5.048172 16.611929 4.315779 -2.604738 4.826602 nan nan nan 2.434797 0.464174 5.095131 -1.867613 -1.878421 -8.391392 -1.025165 0.010982 1.651742 -2.753676 9.394379 -10.896102 2.937635 -15.417879 -39.235132 11.357398 -6.925512 -10.124332 -2.743624 -18.390649 -18.810008 115.484388 -45.017061 -100.543891 4.211585 -29.083988 -17.599777 -9.136265 8.614051 -8.525332 8.485136 10.258588 -28.695629 -134.255480 48.378185 -117.869059 -4.200659 18.868087 -15.239195 
4.589653 87.564560 9.351927 179.073953 -1.881330 176.201733 22.155765 15.518815 0.615551 -15.312831 13.157579 18.404265 -18.398205 0.571630 7.701154 nan nan nan -16.679727 -10.581407 -1.883016 1.312304 -5.160790 16.635516 4.340978 -2.588103 4.842937 nan nan nan 2.418356 0.456316 5.103648 -1.859591 -1.879061 -8.420679 -1.001774 0.008843 1.629822 -2.778170 9.400016 -10.528096 2.896536 -15.465061 -39.529631 11.332531 -6.903209 -10.044033 -2.776163 -18.329724 -18.895386 115.475451 -44.920089 -100.435232 3.628235 -29.183769 -17.043834 -9.168803 8.674968 -8.355167 8.547707 10.248932 -28.745683 -134.201888 48.232164 -117.633696 -3.953722 18.790051 -15.061270 
4.581967 87.573097 9.334244 179.044476 -1.897004 176.221988 22.103595 15.533012 0.601611 -15.304174 13.182137 18.420524 -18.386314 0.560823 7.672502 nan nan nan -16.723748 -10.633428 -1.903415 1.285759 -5.155581 16.694791 4.357175 -2.614969 4.864487 nan nan nan 2.417759 0.453980 5.079069 -1.868794 -1.913370 -8.471150 -0.988865 0.020023 1.646278 -2.809029 9.255602 -10.262081 2.896801 -15.415813 -39.741166 11.155516 -6.974367 -10.015012 -2.598704 -18.245422 -18.898503 115.540726 -44.940315 -100.477147 3.547255 -29.092773 -16.918440 -9.153254 8.733664 -8.249324 8.580036 10.181136 -28.785666 -134.125705 48.062691 -117.495680 -3.803595 18.597109 -14.755898 
4.573128 87.578796 9.329309 179.048913 -1.919763 176.214712 22.092665 15.497237 0.602440 -15.314354 13.107462 18.399650 -18.305929 0.583476 7.635081 nan nan nan -16.735728 -10.670936 -1.895783 1.298151 -5.125027 16.710244 4.357069 -2.625360 4.910458 nan nan nan 2.411749 0.476611 5.095109 -1.848040 -1.911066 -8.523579 -0.980283 0.042343 1.688744 -2.840238 9.083635 -10.205823 2.923982 -15.329333 -39.786050 11.023517 -7.020301 -10.043991 -2.517744 -18.305088 -18.761499 115.632170 -45.016875 -100.626571 3.983733 -28.857157 -17.293586 -9.099690 8.686610 -8.285719 8.518625 10.125107 -28.758046 -134.144194 48.040051 -117.613978 -3.877698 18.475978 -14.749109 
4.578370 87.595657 9.326768 179.043920 -1.929727 176.215649 22.078050 15.540926 0.596357 -15.322175 12.936936 18.383101 -18.202080 0.665754 7.580791 nan nan nan -16.752206 -10.727733 -1.910362 1.244557 -5.170359 16.731061 4.308777 -2.728240 5.014716 nan nan nan 2.308263 0.526420 5.105415 -1.783764 -1.894565 -8.585646 -0.936717 0.107769 1.723475 -2.877654 8.751677 -10.049054 3.051925 -15.016095 -39.899424 10.608272 -7.107561 -10.176114 -2.063661 -18.482510 -18.576794 115.767530 -45.303237 -100.853341 4.792048 -28.138800 -17.902759 -8.922927 8.618899 -8.381601 8.304890 10.061061 -28.733313 -134.214236 48.187340 -117.887380 -4.150353 18.359276 -14.736128 
